<svg width="25" height="25" viewBox="0 0 25 25" fill="none" xmlns="http://www.w3.org/2000/svg">
<path d="M19.7917 21.875H5.20833C4.6558 21.875 4.12589 21.6555 3.73519 21.2648C3.34449 20.8741 3.125 20.3442 3.125 19.7917V15.625H5.20833V19.7917H19.7917V5.20833H5.20833V9.375H3.125V5.20833C3.125 4.6558 3.34449 4.12589 3.73519 3.73519C4.12589 3.34449 4.6558 3.125 5.20833 3.125H19.7917C20.3442 3.125 20.8741 3.34449 21.2648 3.73519C21.6555 4.12589 21.875 4.6558 21.875 5.20833V19.7917C21.875 20.3442 21.6555 20.8741 21.2648 21.2648C20.8741 21.6555 20.3442 21.875 19.7917 21.875ZM11.4583 16.6667V13.5417H3.125V11.4583H11.4583V8.33333L16.6667 12.5L11.4583 16.6667Z" fill="#16A085"/>
</svg>
