<svg width="25" height="25" viewBox="0 0 25 25" fill="none" xmlns="http://www.w3.org/2000/svg">
<path d="M6.24992 13.5417C3.94784 13.5417 2.08325 15.4062 2.08325 17.7083C2.08325 20.0104 3.94784 21.875 6.24992 21.875C8.552 21.875 10.4166 20.0104 10.4166 17.7083C10.4166 15.4062 8.552 13.5417 6.24992 13.5417ZM6.24992 19.7917C5.10409 19.7917 4.16659 18.8542 4.16659 17.7083C4.16659 16.5625 5.10409 15.625 6.24992 15.625C7.39575 15.625 8.33325 16.5625 8.33325 17.7083C8.33325 18.8542 7.39575 19.7917 6.24992 19.7917ZM6.24992 3.125C3.94784 3.125 2.08325 4.98958 2.08325 7.29167C2.08325 9.59375 3.94784 11.4583 6.24992 11.4583C8.552 11.4583 10.4166 9.59375 10.4166 7.29167C10.4166 4.98958 8.552 3.125 6.24992 3.125ZM12.4999 5.20833H22.9166V7.29167H12.4999V5.20833ZM12.4999 19.7917V17.7083H22.9166V19.7917H12.4999ZM12.4999 11.4583H22.9166V13.5417H12.4999V11.4583Z" fill="#16A085"/>
</svg>
