<svg width="25" height="25" viewBox="0 0 25 25" fill="none" xmlns="http://www.w3.org/2000/svg">
<path d="M21.0938 0H2.34375C1.05469 0 0 1.05469 0 2.34375V22.6562C0 23.9453 1.05469 25 2.34375 25H21.0938C22.3828 25 23.4375 23.9453 23.4375 22.6562V2.34375C23.4375 1.05469 22.3828 0 21.0938 0ZM20.3125 21.875H3.125V3.125H20.3125V21.875ZM6.25 14.0625H17.1875V15.625H6.25V14.0625ZM6.25 17.1875H17.1875V18.75H6.25V17.1875ZM7.8125 7.03125C7.8126 6.72336 7.87335 6.41851 7.99127 6.1341C8.10918 5.84968 8.28197 5.59128 8.49975 5.37364C8.71753 5.15601 8.97605 4.9834 9.26054 4.86567C9.54503 4.74794 9.84992 4.6874 10.1578 4.6875C10.4657 4.6876 10.7706 4.74835 11.055 4.86627C11.3394 4.98418 11.5978 5.15697 11.8154 5.37475C12.0331 5.59253 12.2057 5.85105 12.3234 6.13554C12.4411 6.42003 12.5017 6.72492 12.5016 7.03281C12.5014 7.65462 12.2541 8.25088 11.8143 8.69042C11.3745 9.12996 10.7781 9.37677 10.1562 9.37656C9.53444 9.37636 8.93818 9.12914 8.49864 8.68931C8.05911 8.24948 7.81229 7.65306 7.8125 7.03125ZM11.7188 9.375H8.59375C7.30469 9.375 6.25 10.0781 6.25 10.9375V12.5H14.0625V10.9375C14.0625 10.0781 13.0078 9.375 11.7188 9.375Z" fill="#16A085"/>
</svg>
