<svg width="24" height="26" viewBox="0 0 24 26" fill="none" xmlns="http://www.w3.org/2000/svg">
<g clip-path="url(#clip0_64_48)">
<path d="M23.71 1.34146C23.575 1.20176 23.4045 1.10504 23.2185 1.06266C23.0325 1.02029 22.8388 1.03403 22.66 1.10226L0.660001 9.42226C0.470269 9.4971 0.306921 9.63021 0.191652 9.80389C0.0763829 9.97757 0.0146484 10.1836 0.0146484 10.3947C0.0146484 10.6057 0.0763829 10.8117 0.191652 10.9854C0.306921 11.1591 0.470269 11.2922 0.660001 11.3671L10.26 15.3607L14.1 25.3447C14.1721 25.5333 14.2958 25.6959 14.4557 25.8123C14.6157 25.9287 14.8049 25.9939 15 25.9999C15.2021 25.9955 15.3982 25.9276 15.5624 25.8051C15.7266 25.6826 15.8513 25.5112 15.92 25.3135L23.92 2.43346C23.9881 2.24946 24.0046 2.04911 23.9674 1.85576C23.9302 1.66242 23.8409 1.48405 23.71 1.34146ZM15 22.0479L12.21 14.7679L17 9.78626L15.59 8.31986L10.76 13.3431L3.8 10.3999L21.33 3.81666L15 22.0479Z" fill="#F2C44C"/>
</g>
<defs>
<clipPath id="clip0_64_48">
<rect width="24" height="26" fill="white" transform="translate(0 -0.000244141)"/>
</clipPath>
</defs>
</svg>
