<svg width="239" height="40" viewBox="0 0 239 40" fill="none" xmlns="http://www.w3.org/2000/svg">
<path d="M13.3333 10.0001C13.3333 9.11603 13.6845 8.26818 14.3096 7.64306C14.9348 7.01794 15.7826 6.66675 16.6667 6.66675H23.3333C24.2174 6.66675 25.0652 7.01794 25.6904 7.64306C26.3155 8.26818 26.6667 9.11603 26.6667 10.0001V13.3334H30C30.8841 13.3334 31.7319 13.6846 32.357 14.3097C32.9821 14.9348 33.3333 15.7827 33.3333 16.6667V23.3334C33.3333 24.2175 32.9821 25.0653 32.357 25.6904C31.7319 26.3156 30.8841 26.6667 30 26.6667H26.6667V30.0001C26.6667 30.8841 26.3155 31.732 25.6904 32.3571C25.0652 32.9822 24.2174 33.3334 23.3333 33.3334H16.6667C15.7826 33.3334 14.9348 32.9822 14.3096 32.3571C13.6845 31.732 13.3333 30.8841 13.3333 30.0001V26.6667H10C9.11595 26.6667 8.2681 26.3156 7.64298 25.6904C7.01786 25.0653 6.66667 24.2175 6.66667 23.3334V16.6667C6.66667 15.7827 7.01786 14.9348 7.64298 14.3097C8.2681 13.6846 9.11595 13.3334 10 13.3334H13.3333V10.0001ZM23.3333 10.0001H16.6667V15.0001C16.6667 15.4421 16.4911 15.866 16.1785 16.1786C15.866 16.4912 15.442 16.6667 15 16.6667H10V23.3334H15C15.442 23.3334 15.866 23.509 16.1785 23.8216C16.4911 24.1341 16.6667 24.5581 16.6667 25.0001V30.0001H23.3333V25.0001C23.3333 24.5581 23.5089 24.1341 23.8215 23.8216C24.1341 23.509 24.558 23.3334 25 23.3334H30V16.6667H25C24.558 16.6667 24.1341 16.4912 23.8215 16.1786C23.5089 15.866 23.3333 15.4421 23.3333 15.0001V10.0001Z" fill="#16A085"/>
<path d="M71.95 11.6V27H68.386V20.686H61.39V27H57.826V11.6H61.39V17.672H68.386V11.6H71.95ZM87.3856 21.126C87.3856 21.17 87.3636 21.478 87.3196 22.05H78.3656C78.5269 22.7833 78.9082 23.3627 79.5096 23.788C80.1109 24.2133 80.8589 24.426 81.7536 24.426C82.3696 24.426 82.9122 24.338 83.3816 24.162C83.8656 23.9713 84.3129 23.678 84.7236 23.282L86.5496 25.262C85.4349 26.538 83.8069 27.176 81.6656 27.176C80.3309 27.176 79.1502 26.9193 78.1236 26.406C77.0969 25.878 76.3049 25.152 75.7476 24.228C75.1902 23.304 74.9116 22.2553 74.9116 21.082C74.9116 19.9233 75.1829 18.882 75.7256 17.958C76.2829 17.0193 77.0382 16.2933 77.9916 15.78C78.9596 15.252 80.0376 14.988 81.2256 14.988C82.3842 14.988 83.4329 15.2373 84.3716 15.736C85.3102 16.2347 86.0436 16.9533 86.5716 17.892C87.1142 18.816 87.3856 19.894 87.3856 21.126ZM81.2476 17.584C80.4702 17.584 79.8176 17.804 79.2896 18.244C78.7616 18.684 78.4389 19.2853 78.3216 20.048H84.1516C84.0342 19.3 83.7116 18.706 83.1836 18.266C82.6556 17.8113 82.0102 17.584 81.2476 17.584ZM90.1105 10.676H93.5425V27H90.1105V10.676ZM104.164 14.988C105.264 14.988 106.261 15.2447 107.156 15.758C108.065 16.2567 108.776 16.968 109.29 17.892C109.803 18.8013 110.06 19.8647 110.06 21.082C110.06 22.2993 109.803 23.37 109.29 24.294C108.776 25.2033 108.065 25.9147 107.156 26.428C106.261 26.9267 105.264 27.176 104.164 27.176C102.653 27.176 101.465 26.6993 100.6 25.746V31.268H97.1677V15.164H100.446V16.528C101.296 15.5013 102.536 14.988 104.164 14.988ZM103.57 24.36C104.45 24.36 105.168 24.0667 105.726 23.48C106.298 22.8787 106.584 22.0793 106.584 21.082C106.584 20.0847 106.298 19.2927 105.726 18.706C105.168 18.1047 104.45 17.804 103.57 17.804C102.69 17.804 101.964 18.1047 101.392 18.706C100.834 19.2927 100.556 20.0847 100.556 21.082C100.556 22.0793 100.834 22.8787 101.392 23.48C101.964 24.0667 102.69 24.36 103.57 24.36ZM134.626 14.988C136.107 14.988 137.28 15.428 138.146 16.308C139.026 17.1733 139.466 18.4787 139.466 20.224V27H136.034V20.752C136.034 19.8133 135.836 19.1167 135.44 18.662C135.058 18.1927 134.508 17.958 133.79 17.958C132.983 17.958 132.345 18.222 131.876 18.75C131.406 19.2633 131.172 20.0333 131.172 21.06V27H127.74V20.752C127.74 18.8893 126.992 17.958 125.496 17.958C124.704 17.958 124.073 18.222 123.604 18.75C123.134 19.2633 122.9 20.0333 122.9 21.06V27H119.468V15.164H122.746V16.528C123.186 16.0293 123.721 15.648 124.352 15.384C124.997 15.12 125.701 14.988 126.464 14.988C127.3 14.988 128.055 15.1567 128.73 15.494C129.404 15.8167 129.947 16.2933 130.358 16.924C130.842 16.308 131.45 15.8313 132.184 15.494C132.932 15.1567 133.746 14.988 134.626 14.988ZM154.705 21.126C154.705 21.17 154.683 21.478 154.639 22.05H145.685C145.846 22.7833 146.227 23.3627 146.829 23.788C147.43 24.2133 148.178 24.426 149.073 24.426C149.689 24.426 150.231 24.338 150.701 24.162C151.185 23.9713 151.632 23.678 152.043 23.282L153.869 25.262C152.754 26.538 151.126 27.176 148.985 27.176C147.65 27.176 146.469 26.9193 145.443 26.406C144.416 25.878 143.624 25.152 143.067 24.228C142.509 23.304 142.231 22.2553 142.231 21.082C142.231 19.9233 142.502 18.882 143.045 17.958C143.602 17.0193 144.357 16.2933 145.311 15.78C146.279 15.252 147.357 14.988 148.545 14.988C149.703 14.988 150.752 15.2373 151.691 15.736C152.629 16.2347 153.363 16.9533 153.891 17.892C154.433 18.816 154.705 19.894 154.705 21.126ZM148.567 17.584C147.789 17.584 147.137 17.804 146.609 18.244C146.081 18.684 145.758 19.2853 145.641 20.048H151.471C151.353 19.3 151.031 18.706 150.503 18.266C149.975 17.8113 149.329 17.584 148.567 17.584ZM158.75 22.908C159.366 22.908 159.872 23.106 160.268 23.502C160.664 23.8833 160.862 24.3893 160.862 25.02C160.862 25.3133 160.825 25.6067 160.752 25.9C160.678 26.1933 160.517 26.6333 160.268 27.22L159.014 30.388H156.836L157.804 26.89C157.437 26.7433 157.144 26.5087 156.924 26.186C156.718 25.8487 156.616 25.46 156.616 25.02C156.616 24.3893 156.814 23.8833 157.21 23.502C157.62 23.106 158.134 22.908 158.75 22.908ZM173.576 16.726C173.987 16.154 174.537 15.7213 175.226 15.428C175.93 15.1347 176.737 14.988 177.646 14.988V18.156C177.265 18.1267 177.008 18.112 176.876 18.112C175.893 18.112 175.123 18.3907 174.566 18.948C174.009 19.4907 173.73 20.312 173.73 21.412V27H170.298V15.164H173.576V16.726ZM185.651 27.176C184.404 27.176 183.282 26.9193 182.285 26.406C181.302 25.878 180.532 25.152 179.975 24.228C179.418 23.304 179.139 22.2553 179.139 21.082C179.139 19.9087 179.418 18.86 179.975 17.936C180.532 17.012 181.302 16.2933 182.285 15.78C183.282 15.252 184.404 14.988 185.651 14.988C186.898 14.988 188.012 15.252 188.995 15.78C189.978 16.2933 190.748 17.012 191.305 17.936C191.862 18.86 192.141 19.9087 192.141 21.082C192.141 22.2553 191.862 23.304 191.305 24.228C190.748 25.152 189.978 25.878 188.995 26.406C188.012 26.9193 186.898 27.176 185.651 27.176ZM185.651 24.36C186.531 24.36 187.25 24.0667 187.807 23.48C188.379 22.8787 188.665 22.0793 188.665 21.082C188.665 20.0847 188.379 19.2927 187.807 18.706C187.25 18.1047 186.531 17.804 185.651 17.804C184.771 17.804 184.045 18.1047 183.473 18.706C182.901 19.2927 182.615 20.0847 182.615 21.082C182.615 22.0793 182.901 22.8787 183.473 23.48C184.045 24.0667 184.771 24.36 185.651 24.36ZM201.871 14.988C202.971 14.988 203.969 15.2447 204.863 15.758C205.773 16.2567 206.484 16.968 206.997 17.892C207.511 18.8013 207.767 19.8647 207.767 21.082C207.767 22.2993 207.511 23.37 206.997 24.294C206.484 25.2033 205.773 25.9147 204.863 26.428C203.969 26.9267 202.971 27.176 201.871 27.176C200.243 27.176 199.004 26.6627 198.153 25.636V27H194.875V10.676H198.307V16.418C199.173 15.4647 200.361 14.988 201.871 14.988ZM201.277 24.36C202.157 24.36 202.876 24.0667 203.433 23.48C204.005 22.8787 204.291 22.0793 204.291 21.082C204.291 20.0847 204.005 19.2927 203.433 18.706C202.876 18.1047 202.157 17.804 201.277 17.804C200.397 17.804 199.671 18.1047 199.099 18.706C198.542 19.2927 198.263 20.0847 198.263 21.082C198.263 22.0793 198.542 22.8787 199.099 23.48C199.671 24.0667 200.397 24.36 201.277 24.36ZM216.137 27.176C214.89 27.176 213.768 26.9193 212.771 26.406C211.788 25.878 211.018 25.152 210.461 24.228C209.903 23.304 209.625 22.2553 209.625 21.082C209.625 19.9087 209.903 18.86 210.461 17.936C211.018 17.012 211.788 16.2933 212.771 15.78C213.768 15.252 214.89 14.988 216.137 14.988C217.383 14.988 218.498 15.252 219.481 15.78C220.463 16.2933 221.233 17.012 221.791 17.936C222.348 18.86 222.627 19.9087 222.627 21.082C222.627 22.2553 222.348 23.304 221.791 24.228C221.233 25.152 220.463 25.878 219.481 26.406C218.498 26.9193 217.383 27.176 216.137 27.176ZM216.137 24.36C217.017 24.36 217.735 24.0667 218.293 23.48C218.865 22.8787 219.151 22.0793 219.151 21.082C219.151 20.0847 218.865 19.2927 218.293 18.706C217.735 18.1047 217.017 17.804 216.137 17.804C215.257 17.804 214.531 18.1047 213.959 18.706C213.387 19.2927 213.101 20.0847 213.101 21.082C213.101 22.0793 213.387 22.8787 213.959 23.48C214.531 24.0667 215.257 24.36 216.137 24.36ZM232.995 26.428C232.657 26.6773 232.239 26.868 231.741 27C231.257 27.1173 230.743 27.176 230.201 27.176C228.793 27.176 227.7 26.8167 226.923 26.098C226.16 25.3793 225.779 24.3233 225.779 22.93V18.068H223.953V15.428H225.779V12.546H229.211V15.428H232.159V18.068H229.211V22.886C229.211 23.3847 229.335 23.7733 229.585 24.052C229.849 24.316 230.215 24.448 230.685 24.448C231.227 24.448 231.689 24.3013 232.071 24.008L232.995 26.428Z" fill="white"/>
</svg>
