<svg width="35" height="35" viewBox="0 0 35 35" fill="none" xmlns="http://www.w3.org/2000/svg">
<path d="M13.5771 21.4376L15.7646 23.6251L21.5979 17.7917" stroke="white" stroke-width="1.5" stroke-linecap="round" stroke-linejoin="round"/>
<path d="M14.5834 8.75008H20.4167C23.3334 8.75008 23.3334 7.29175 23.3334 5.83341C23.3334 2.91675 21.875 2.91675 20.4167 2.91675H14.5834C13.125 2.91675 11.6667 2.91675 11.6667 5.83341C11.6667 8.75008 13.125 8.75008 14.5834 8.75008Z" stroke="white" stroke-width="1.5" stroke-miterlimit="10" stroke-linecap="round" stroke-linejoin="round"/>
<path d="M23.3333 5.86255C28.1896 6.12505 30.625 7.9188 30.625 14.5834V23.3334C30.625 29.1667 29.1667 32.0834 21.875 32.0834H13.125C5.83333 32.0834 4.375 29.1667 4.375 23.3334V14.5834C4.375 7.93338 6.81042 6.12505 11.6667 5.86255" stroke="white" stroke-width="1.5" stroke-miterlimit="10" stroke-linecap="round" stroke-linejoin="round"/>
</svg>
