<svg width="23" height="23" viewBox="0 0 23 23" fill="none" xmlns="http://www.w3.org/2000/svg">
<path d="M5.75 2.875C5.75 2.1125 6.0529 1.38123 6.59207 0.842068C7.13124 0.302901 7.8625 0 8.625 0H14.375C15.1375 0 15.8688 0.302901 16.4079 0.842068C16.9471 1.38123 17.25 2.1125 17.25 2.875V5.75H20.125C20.8875 5.75 21.6188 6.0529 22.1579 6.59207C22.6971 7.13124 23 7.8625 23 8.625V14.375C23 15.1375 22.6971 15.8688 22.1579 16.4079C21.6188 16.9471 20.8875 17.25 20.125 17.25H17.25V20.125C17.25 20.8875 16.9471 21.6188 16.4079 22.1579C15.8688 22.6971 15.1375 23 14.375 23H8.625C7.8625 23 7.13124 22.6971 6.59207 22.1579C6.0529 21.6188 5.75 20.8875 5.75 20.125V17.25H2.875C2.1125 17.25 1.38123 16.9471 0.842068 16.4079C0.302901 15.8688 0 15.1375 0 14.375V8.625C0 7.8625 0.302901 7.13124 0.842068 6.59207C1.38123 6.0529 2.1125 5.75 2.875 5.75H5.75V2.875ZM14.375 2.875H8.625V7.1875C8.625 7.56875 8.47355 7.93438 8.20397 8.20397C7.93438 8.47355 7.56875 8.625 7.1875 8.625H2.875V14.375H7.1875C7.56875 14.375 7.93438 14.5265 8.20397 14.796C8.47355 15.0656 8.625 15.4313 8.625 15.8125V20.125H14.375V15.8125C14.375 15.4313 14.5265 15.0656 14.796 14.796C15.0656 14.5265 15.4313 14.375 15.8125 14.375H20.125V8.625H15.8125C15.4313 8.625 15.0656 8.47355 14.796 8.20397C14.5265 7.93438 14.375 7.56875 14.375 7.1875V2.875Z" fill="#16A085"/>
</svg>
