<svg width="30" height="30" viewBox="0 0 30 30" fill="none" xmlns="http://www.w3.org/2000/svg">
<path d="M15 0C6.71573 0 0 6.71573 0 15C0 23.2843 6.71573 30 15 30C23.2843 30 30 23.2843 30 15C30 6.71573 23.2843 0 15 0ZM7.43958 6.33728L10.1093 7.1759C10.4627 7.29198 10.6981 7.62018 10.7391 7.95593L10.8893 9.42623L22.9779 10.7757C23.497 10.8763 23.8617 11.3449 23.7891 11.8267L23.0383 16.0564C22.9428 16.4989 22.5763 16.8021 22.1686 16.8072H11.4295L11.2189 18.0065H21.4179C21.9512 18.0253 22.3418 18.4314 22.348 18.9055C22.3259 19.4465 21.8899 19.8006 21.4179 19.8064H10.1385C9.56965 19.7594 9.152 19.3086 9.2395 18.7572L9.71923 16.1169L8.9685 8.73595L6.8994 8.0768C6.6594 7.9968 6.47925 7.84633 6.35925 7.62633C6.1322 7.15053 6.34428 6.62373 6.74928 6.39585C6.98043 6.2757 7.20618 6.26073 7.43958 6.33728V6.33728ZM11.5045 20.3247C12.2812 20.3247 12.9108 20.9543 12.9108 21.7309C12.9108 22.5076 12.2812 23.1372 11.5045 23.1372C10.7279 23.1372 10.0983 22.5076 10.0983 21.7309C10.0983 20.9543 10.7279 20.3247 11.5045 20.3247ZM19.7589 20.3247C20.5355 20.3247 21.1652 20.9543 21.1652 21.7309C21.1652 22.5076 20.5355 23.1372 19.7589 23.1372C18.9823 23.1372 18.3527 22.5076 18.3527 21.7309C18.3527 20.9543 18.9823 20.3247 19.7589 20.3247Z" fill="#555555"/>
</svg>
